<svg width="18" height="18" viewBox="0 0 18 18" fill="none" xmlns="http://www.w3.org/2000/svg">
<path d="M10.4613 1.5707C9.62031 0.854034 8.38341 0.854041 7.54251 1.5707L6.53148 2.43227C6.41135 2.53463 6.262 2.59649 6.10467 2.60905L4.78056 2.71472C3.67916 2.80261 2.80456 3.67721 2.71667 4.7786L2.61101 6.10271C2.59846 6.26003 2.53658 6.40942 2.43421 6.52954L1.57264 7.54055C0.855988 8.38152 0.855995 9.61835 1.57266 10.4592L2.43423 11.4703C2.53658 11.5905 2.59845 11.7398 2.611 11.8971L2.71669 13.2212C2.80458 14.3226 3.67918 15.1971 4.78059 15.285L6.10468 15.3908C6.262 15.4033 6.41132 15.4652 6.53144 15.5676L7.54243 16.4291C8.38341 17.1457 9.62031 17.1458 10.4613 16.4291L11.4723 15.5676C11.5924 15.4652 11.7417 15.4033 11.899 15.3907L13.2232 15.285C14.3245 15.1972 15.1991 14.3226 15.2871 13.2212L15.3927 11.8971C15.4052 11.7398 15.4672 11.5904 15.5695 11.4702L16.4311 10.4593C17.1478 9.61835 17.1478 8.38145 16.4311 7.54055L15.5695 6.52951C15.4671 6.40938 15.4053 6.26003 15.3928 6.10271L15.2871 4.7786C15.1992 3.67722 14.3245 2.80259 13.2232 2.71471L11.899 2.60904C11.7417 2.59649 11.5924 2.53463 11.4723 2.43227L10.4613 1.5707ZM11.123 5.81801L12.1837 6.87867L6.88034 12.182L5.81968 11.1213L11.123 5.81801ZM7.67586 7.67412C7.23649 8.11347 6.52419 8.11347 6.08485 7.67412C5.6455 7.23485 5.6455 6.52251 6.08485 6.08317C6.52419 5.64383 7.23649 5.64383 7.67586 6.08317C8.11521 6.52251 8.11521 7.23485 7.67586 7.67412ZM10.3275 11.9168C9.88813 11.4774 9.88813 10.7652 10.3275 10.3258C10.7668 9.88647 11.4791 9.88647 11.9185 10.3258C12.3578 10.7652 12.3578 11.4774 11.9185 11.9168C11.4791 12.3561 10.7668 12.3561 10.3275 11.9168Z" fill="url(#paint0_linear_54_1690)"/>
<path d="M11.123 5.81801L12.1837 6.87867L6.88034 12.182L5.81968 11.1213L11.123 5.81801Z" fill="url(#paint1_linear_54_1690)"/>
<path d="M10.3275 11.9168C9.88813 11.4774 9.88813 10.7652 10.3275 10.3258C10.7668 9.88647 11.4791 9.88647 11.9185 10.3258C12.3578 10.7652 12.3578 11.4774 11.9185 11.9168C11.4791 12.3561 10.7668 12.3561 10.3275 11.9168Z" fill="url(#paint2_linear_54_1690)"/>
<path d="M7.67586 7.67412C7.23649 8.11347 6.52419 8.11347 6.08485 7.67412C5.6455 7.23485 5.6455 6.52251 6.08485 6.08317C6.52419 5.64383 7.23649 5.64383 7.67586 6.08317C8.11521 6.52251 8.11521 7.23485 7.67586 7.67412Z" fill="url(#paint3_linear_54_1690)"/>
<g clip-path="url(#clip0_54_1690)">
<path d="M13.3763 8.99972C13.3765 9.08157 13.3605 9.16266 13.3292 9.2383C13.2979 9.31393 13.2519 9.3826 13.1939 9.44034L9.4419 13.1927C9.3248 13.3091 9.16639 13.3744 9.00128 13.3744C8.83616 13.3744 8.67775 13.3091 8.56065 13.1927L4.81065 9.44034C4.69424 9.32324 4.62891 9.16483 4.62891 8.99972C4.62891 8.8346 4.69424 8.67619 4.81065 8.55909L8.5626 4.80675C8.67971 4.69034 8.83811 4.625 9.00323 4.625C9.16835 4.625 9.32675 4.69034 9.44385 4.80675L13.1958 8.55909C13.2535 8.61699 13.2991 8.68574 13.3301 8.76136C13.3611 8.83699 13.3768 8.91799 13.3763 8.99972Z" fill="white"/>
</g>
<defs>
<linearGradient id="paint0_linear_54_1690" x1="1.03516" y1="8.9999" x2="16.9686" y2="8.9999" gradientUnits="userSpaceOnUse">
<stop stop-color="#43B6FB"/>
<stop offset="0.355769" stop-color="#D90BAF"/>
<stop offset="0.692308" stop-color="#E65475"/>
<stop offset="1" stop-color="#46CD3C"/>
</linearGradient>
<linearGradient id="paint1_linear_54_1690" x1="1.03516" y1="8.9999" x2="16.9686" y2="8.9999" gradientUnits="userSpaceOnUse">
<stop stop-color="#43B6FB"/>
<stop offset="0.355769" stop-color="#D90BAF"/>
<stop offset="0.692308" stop-color="#E65475"/>
<stop offset="1" stop-color="#46CD3C"/>
</linearGradient>
<linearGradient id="paint2_linear_54_1690" x1="1.03516" y1="8.9999" x2="16.9686" y2="8.9999" gradientUnits="userSpaceOnUse">
<stop stop-color="#43B6FB"/>
<stop offset="0.355769" stop-color="#D90BAF"/>
<stop offset="0.692308" stop-color="#E65475"/>
<stop offset="1" stop-color="#46CD3C"/>
</linearGradient>
<linearGradient id="paint3_linear_54_1690" x1="1.03516" y1="8.9999" x2="16.9686" y2="8.9999" gradientUnits="userSpaceOnUse">
<stop stop-color="#43B6FB"/>
<stop offset="0.355769" stop-color="#D90BAF"/>
<stop offset="0.692308" stop-color="#E65475"/>
<stop offset="1" stop-color="#46CD3C"/>
</linearGradient>
<clipPath id="clip0_54_1690">
<rect width="10" height="10" fill="white" transform="translate(4.00195 4)"/>
</clipPath>
</defs>
</svg>
